<svg data-v-0dd9719b="" version="1.0" xmlns="http://www.w3.org/2000/svg" xmlns:xlink="http://www.w3.org/1999/xlink" width="100%" height="100%" viewBox="0 0 340.000000 250.000000" preserveAspectRatio="xMidYMid meet" color-interpolation-filters="sRGB" style="margin: auto;"> <rect data-v-0dd9719b="" x="0" y="0" width="100%" height="100%" fill="#fff" fill-opacity="1" class="background"></rect> <rect data-v-0dd9719b="" x="0" y="0" width="100%" height="100%" fill="url(#watermark)" fill-opacity="1" class="watermarklayer"></rect> <g data-v-0dd9719b="" fill="#009444" class="icon-text-wrapper icon-svg-group iconsvg" transform="translate(67.55714416503906,84.56437301635742)"><g class="iconsvg-imagesvg" transform="translate(0,0)"><g><rect fill="#009444" fill-opacity="0" stroke-width="2" x="0" y="0" width="60" height="80.87125296527927" class="image-rect"></rect> <svg x="0" y="0" width="60" height="80.87125296527927" filtersec="colorsb6928852974" class="image-svg-svg primary" style="overflow: visible;"><svg xmlns="http://www.w3.org/2000/svg" viewBox="0 0 14 18.8700008392334"><g><g><g><path fill="#009444" d="M2.34 8.09L0 6.74l2.34-1.35 2.32 1.35-2.32 1.35z"></path><path fill="#fff200" d="M2.32 2.7l.02-.01V0L0 1.34v5.4l2.34-1.35V2.7h-.02z"></path><path fill="#ffb429" d="M4.66 1.34L2.34 0v5.39l2.32 1.35v-5.4zM4.66 4.07L7 5.41v2.7L4.66 6.76V4.07z"></path><path fill="#009444" d="M11.66 8.11L9.33 6.76l2.33-1.35L14 6.76l-2.34 1.35z"></path><path fill="#fff200" d="M9.33 1.37V6.76l2.33-1.35V.02L9.33 1.37z"></path><path fill="#ffb429" d="M11.66.02V5.41L14 6.76V1.37L11.66.02z"></path><path fill="#fff200" d="M9.33 4.07L6.99 5.41v2.7l2.34-1.35V4.07z"></path><path fill="#009444" d="M2.34 18.87L0 17.52l2.34-1.34 2.32 1.34-2.32 1.35z"></path><path fill="#ffb429" d="M2.34 10.79v5.39l2.32 1.34v-5.39l-2.32-1.34z"></path><path fill="#009444" d="M11.66 18.87l-2.33-1.35 2.33-1.34L14 17.52l-2.34 1.35z"></path><path fill="#fff200" d="M11.66 10.79l-2.33 1.35v5.38l2.33-1.34v-5.39z"></path><path fill="#009444" d="M7 8.11L2.34 10.8v.01l2.32 1.35L7 10.81l2.33 1.35 2.33-1.35v-.01L7 8.11z"></path><path fill="#fff200" d="M4.66 6.76V4.07L2.33 5.41l.01 2.7L0 9.44v8.08l2.34-1.34v-5.35L7 8.11v-2.7L4.66 6.76z"></path><path d="M14 9.44l-2.34-1.36V5.41L9.33 4.07v2.7L7 5.41v2.7l4.67 2.7v5.37L14 17.52zm-2.34 1.35z" fill="#ffb429"></path></g></g></g></svg></svg> <!----></g></g> <g transform="translate(67,15.316341400146484)"><g data-gra="path-name" fill-rule="" class="tp-name iconsvg-namesvg"><g transform="scale(1)"><g><path d="M4.8-44.28L4.8-44.28Q5.04-44.52 5.43-44.34 5.82-44.16 6.12-43.68L6.12-43.68Q6.3-43.38 6.87-41.67 7.44-39.96 8.28-37.32L8.28-37.32Q9.3-34.14 10.5-30.45 11.7-26.76 12.96-23.28L12.96-23.28Q16.74-30.9 19.02-35.52 21.3-40.14 21.3-40.14L21.3-40.14Q21.9-41.04 22.8-40.89 23.7-40.74 24.6-39.96 25.5-39.18 26.13-38.28 26.76-37.38 26.88-36.78L26.88-36.78Q26.46-35.34 25.17-32.76 23.88-30.18 21.48-25.68L21.48-25.68Q19.32-21.6 16.14-15.42L16.14-15.42Q18.54-9.12 20.58-3.84L20.58-3.84Q21.84-0.6 22.98 2.46L22.98 2.46Q23.16 3 23.07 3.54 22.98 4.08 22.38 4.26L22.38 4.26Q21.96 4.32 21.63 3.9 21.3 3.48 21.24 2.94L21.24 2.94Q20.7 1.68 19.5-1.41 18.3-4.5 16.98-7.95 15.66-11.4 14.88-13.8L14.88-13.8Q12.66-9.84 10.83-6.72 9-3.6 7.74-1.68 6.48 0.24 5.82 0.6L5.82 0.6Q5.04 0.84 4.02 0.75 3 0.66 2.07 0.24 1.14-0.18 0.57-0.96 0-1.74 0.06-2.82L0.06-2.82Q0.42-3.3 0.9-3.72L0.9-3.72Q1.38-4.14 2.19-5.04 3-5.94 4.23-7.77 5.46-9.6 7.35-12.87 9.24-16.14 11.94-21.42L11.94-21.42Q9.54-28.32 7.56-34.26 5.58-40.2 5.04-41.94L5.04-41.94Q5.04-42 4.98-42.06L4.98-42.06Q4.74-42.72 4.62-43.35 4.5-43.98 4.8-44.28ZM33.48-0.06L33.48-0.06Q34.26 0.3 35.55 0.87 36.84 1.44 38.4 1.95 39.96 2.46 41.58 2.73 43.2 3 44.58 2.76 45.96 2.52 46.89 1.59 47.82 0.66 48.06-1.2L48.06-1.2Q48.06-1.56 48.24-1.65 48.42-1.74 48.66-1.74L48.66-1.74Q49.08-1.74 49.2-1.5 49.32-1.26 49.32-0.9L49.32-0.9Q48.9 1.38 47.76 2.55 46.62 3.72 44.97 3.99 43.32 4.26 41.34 3.93 39.36 3.6 37.23 2.91 35.1 2.22 32.94 1.5L32.94 1.5Q30.84 0.72 28.98 0.12L28.98 0.12Q28.68 0.06 28.47-0.06 28.26-0.18 28.02-0.42L28.02-0.42Q27.42-1.2 27.51-3.87 27.6-6.54 28.23-10.62 28.86-14.7 29.79-19.68 30.72-24.66 31.8-30.06L31.8-30.06Q33.3-37.5 34.62-44.64L34.62-44.64Q34.92-44.76 35.85-44.58 36.78-44.4 37.83-43.92 38.88-43.44 39.6-42.66L39.6-42.66Q39.9-42.24 39.96-41.49 40.02-40.74 40.02-39.72L40.02-39.72Q39.36-35.4 38.61-31.17 37.86-26.94 37.08-22.8L37.08-22.8Q36-17.1 35.04-11.43 34.08-5.76 33.48-0.06ZM54.72-1.38L54.72-1.38Q53.94-2.28 54.21-3.81 54.48-5.34 55.35-7.2 56.22-9.06 57.24-10.77 58.26-12.48 59.04-13.74L59.04-13.74Q59.34-14.16 59.58-14.52L59.58-14.52Q59.46-14.64 59.28-14.76L59.28-14.76Q58.92-15.12 58.38-15.48L58.38-15.48Q55.68-17.34 54.33-20.01 52.98-22.68 52.77-25.77 52.56-28.86 53.37-31.92 54.18-34.98 55.83-37.65 57.48-40.32 59.85-42.15 62.22-43.98 65.16-44.64L65.16-44.64Q68.22-45.24 70.2-44.52 72.18-43.8 73.14-41.79 74.1-39.78 74.16-36.54L74.16-36.54Q74.16-34.5 73.44-33.06 72.72-31.62 71.67-31.05 70.62-30.48 69.69-31.11 68.76-31.74 68.28-33.78L68.28-33.78Q68.16-34.44 68.22-34.74 68.28-35.04 68.58-35.22L68.58-35.22Q68.88-35.28 69.09-35.01 69.3-34.74 69.54-34.26L69.54-34.26Q70.02-32.46 70.59-32.16 71.16-31.86 71.73-32.55 72.3-33.24 72.6-34.44 72.9-35.64 72.84-36.96L72.84-36.96Q72.6-39.72 71.55-40.74 70.5-41.76 68.94-41.43 67.38-41.1 65.67-39.66 63.96-38.22 62.46-36.06 60.96-33.9 60-31.29 59.04-28.68 58.95-25.92 58.86-23.16 60.03-20.64 61.2-18.12 63.96-16.08L63.96-16.08Q66.42-14.22 67.38-11.88 68.34-9.54 67.74-7.08L67.74-7.08Q67.2-4.8 65.97-3.12 64.74-1.44 63.39-0.45 62.04 0.54 61.14 0.6L61.14 0.6Q60.06 0.66 58.74 0.36 57.42 0.06 56.31-0.39 55.2-0.84 54.72-1.38ZM61.56-9.78L61.56-9.78Q61.62-10.62 61.41-11.52 61.2-12.42 60.6-13.32L60.6-13.32Q59.88-12.18 58.86-10.5 57.84-8.82 57-7.05 56.16-5.28 55.83-3.9 55.5-2.52 56.16-1.98L56.16-1.98Q56.64-1.5 57.48-1.98 58.32-2.46 59.19-3.63 60.06-4.8 60.72-6.39 61.38-7.98 61.56-9.78ZM103.38 0.9L103.38 0.9Q102.84 1.14 101.67 1.17 100.5 1.2 99.42 0.87 98.34 0.54 98.1-0.24L98.1-0.24Q97.8-1.68 98.22-6 98.64-10.32 99.48-15.9 100.32-21.48 101.22-26.7 102.12-31.92 102.66-35.16L102.66-35.16Q101.58-32.28 99.51-26.31 97.44-20.34 95.64-14.94 93.84-9.54 93.6-8.28L93.6-8.28Q93.54-8.1 92.61-8.07 91.68-8.04 90.45-8.28 89.22-8.52 88.29-9 87.36-9.48 87.36-10.26L87.36-10.26Q87.3-14.28 87.54-18.18 87.78-22.08 88.14-25.8L88.14-25.8Q88.32-28.44 88.53-30.99 88.74-33.54 88.8-36.06L88.8-36.06Q87.42-31.74 85.86-25.2 84.3-18.66 82.92-12.27 81.54-5.88 80.76-2.1L80.76-2.1Q80.7-1.86 80.64-1.62L80.64-1.62Q80.4-0.84 79.38-0.57 78.36-0.3 77.16-0.54 75.96-0.78 75.06-1.5 74.16-2.22 74.22-3.48L74.22-3.48Q74.4-7.8 75.3-14.16 76.2-20.52 77.34-27 78.48-33.48 79.44-38.25 80.4-43.02 80.7-44.1L80.7-44.1Q81.12-44.46 82.08-44.7 83.04-44.94 84.12-44.79 85.2-44.64 85.92-43.83 86.64-43.02 86.46-41.28L86.46-41.28Q85.5-36.06 84.81-31.29 84.12-26.52 83.58-22.68L83.58-22.68Q83.04-19.02 82.68-16.62L82.68-16.62Q83.34-19.26 84.06-22.56L84.06-22.56Q84.66-25.38 85.32-28.23 85.98-31.08 86.73-33.54 87.48-36 88.23-37.56 88.98-39.12 89.82-39.42L89.82-39.42Q90.3-39.6 91.29-39.57 92.28-39.54 93.36-39.15 94.44-38.76 95.16-37.86L95.16-37.86Q95.58-37.38 95.61-35.1 95.64-32.82 95.43-29.61 95.22-26.4 94.98-23.04L94.98-23.04Q94.68-19.38 94.5-16.62L94.5-16.62Q96.12-20.7 97.38-24.15 98.64-27.6 99.6-30.42L99.6-30.42Q100.68-33.66 101.55-35.97 102.42-38.28 103.23-39.6 104.04-40.92 104.88-41.22L104.88-41.22Q104.88-41.22 105.42-41.13 105.96-41.04 106.71-40.8 107.46-40.56 108.09-40.11 108.72-39.66 108.9-38.94L108.9-38.94Q109.02-37.62 108.33-32.01 107.64-26.4 106.62-19.29 105.6-12.18 104.67-6.42 103.74-0.66 103.38 0.9ZM127.08 4.32L127.08 4.32Q127.08 4.92 126.36 4.98 125.64 5.04 124.62 4.74 123.6 4.44 122.67 3.84 121.74 3.24 121.26 2.46L121.26 2.46Q120.9 1.74 121.62-1.95 122.34-5.64 123.66-10.86 124.98-16.08 126.42-21.33 127.86-26.58 128.94-30.42L128.94-30.42Q127.38-26.16 126-23.4 124.62-20.64 123.39-19.14 122.16-17.64 120.99-17.07 119.82-16.5 118.62-16.53 117.42-16.56 116.1-16.92L116.1-16.92Q114.6-17.34 113.76-18.84 112.92-20.34 112.59-22.65 112.26-24.96 112.26-27.72 112.26-30.48 112.5-33.36 112.74-36.24 113.04-39L113.04-39Q113.4-42.54 113.52-45.18L113.52-45.18Q113.52-45.3 114.51-45.21 115.5-45.12 116.76-44.82 118.02-44.52 119.01-44.04 120-43.56 120-42.84L120-42.84Q120-41.22 119.79-38.94 119.58-36.66 119.28-34.08L119.28-34.08Q118.92-31.38 118.68-28.68 118.44-25.98 118.38-23.76 118.32-21.54 118.68-20.16 119.04-18.78 119.88-18.6L119.88-18.6Q121.08-18.54 122.25-19.8 123.42-21.06 124.53-23.25 125.64-25.44 126.72-28.14 127.8-30.84 128.82-33.66L128.82-33.66Q129.54-35.52 130.23-37.32 130.92-39.12 131.58-40.68L131.58-40.68Q131.58-40.68 131.94-40.8 132.3-40.92 132.9-40.95 133.5-40.98 134.31-40.74 135.12-40.5 136.02-39.81 136.92-39.12 137.88-37.8L137.88-37.8Q137.94-37.56 137.94-37.32 137.94-37.08 137.88-36.9L137.88-36.9Q137.76-36.6 136.83-33.3 135.9-30 134.58-25.32 133.26-20.64 132-16.14L132-16.14Q130.26-9.48 129.3-5.19 128.34-0.9 127.92 1.32L127.92 1.32Q127.56 3.06 127.38 3.75 127.2 4.44 127.08 4.32Z" transform="translate(-0.05428570508956909, 45.24856948852539)"></path></g> <!----> <!----> <!----> <!----> <!----> <!----> <!----></g></g> <!----></g></g><defs v-gra="od"></defs></svg>